<?xml version="1.0" encoding="UTF-8" standalone="no"?>
<!-- Created with Inkscape (http://www.inkscape.org/) -->

<svg
   version="1.1"
   id="svg2"
   xml:space="preserve"
   width="170.66667"
   height="113.33333"
   viewBox="0 0 170.66667 113.33333"
   sodipodi:docname="Hamburger_menu_icon.ai"
   xmlns:inkscape="http://www.inkscape.org/namespaces/inkscape"
   xmlns:sodipodi="http://sodipodi.sourceforge.net/DTD/sodipodi-0.dtd"
   xmlns="http://www.w3.org/2000/svg"
   xmlns:svg="http://www.w3.org/2000/svg"><defs
     id="defs6"><clipPath
       clipPathUnits="userSpaceOnUse"
       id="clipPath16"><path
         d="M 0,85 H 128 V 0 H 0 Z"
         id="path14" /></clipPath><clipPath
       clipPathUnits="userSpaceOnUse"
       id="clipPath32"><path
         d="M 83.9694,47.5816 H 100.941 V 38.1529 H 83.9694 Z"
         id="path30" /></clipPath></defs><sodipodi:namedview
     id="namedview4"
     pagecolor="#ffffff"
     bordercolor="#666666"
     borderopacity="1.0"
     inkscape:pageshadow="2"
     inkscape:pageopacity="0.0"
     inkscape:pagecheckerboard="0" /><g
     id="g8"
     inkscape:groupmode="layer"
     inkscape:label="Hamburger_menu_icon"
     transform="matrix(1.3333333,0,0,-1.3333333,0,113.33333)"><g
       id="g10"><g
         id="g12"
         clip-path="url(#clipPath16)"><g
           id="g18"
           transform="translate(96.2266,58.4387)"><path
             d="m 0,0 h -64.114 c -2.604,0 -4.715,2.11 -4.715,4.714 0,2.604 2.111,4.715 4.715,4.715 H 0 c 2.604,0 4.714,-2.11 4.714,-4.715 C 4.714,2.11 2.604,0 0,0"
             style="fill:#333333;fill-opacity:1;fill-rule:nonzero;stroke:none"
             id="path20" /></g><g
           id="g22"
           transform="translate(69.8267,38.1529)"><path
             d="m 0,0 h -37.714 c -2.605,0 -4.715,2.11 -4.715,4.714 0,2.605 2.11,4.715 4.715,4.715 H 0 c 2.604,0 4.714,-2.11 4.714,-4.715 C 4.714,2.11 2.604,0 0,0"
             style="fill:#333333;fill-opacity:1;fill-rule:nonzero;stroke:none"
             id="path24" /></g><g
           id="g26"><g
             id="g28" /><g
             id="g40"><g
               clip-path="url(#clipPath32)"
               opacity="0.5"
               id="g38"><g
                 transform="translate(96.2266,38.1529)"
                 id="g36"><path
                   d="m 0,0 h -7.543 c -2.604,0 -4.714,2.11 -4.714,4.714 0,2.605 2.11,4.715 4.714,4.715 H 0 c 2.604,0 4.714,-2.11 4.714,-4.715 C 4.714,2.11 2.604,0 0,0"
                   style="fill:#333333;fill-opacity:1;fill-rule:nonzero;stroke:none"
                   id="path34" /></g></g></g></g><g
           id="g42"
           transform="translate(96.2266,17.8672)"><path
             d="m 0,0 h -64.114 c -2.604,0 -4.715,2.11 -4.715,4.714 0,2.605 2.111,4.715 4.715,4.715 H 0 c 2.604,0 4.714,-2.11 4.714,-4.715 C 4.714,2.11 2.604,0 0,0"
             style="fill:#333333;fill-opacity:1;fill-rule:nonzero;stroke:none"
             id="path44" /></g></g></g></g></svg>
