<?xml version="1.0" encoding="UTF-8" standalone="no"?>
<svg
   xmlns:dc="http://purl.org/dc/elements/1.1/"
   xmlns:cc="http://creativecommons.org/ns#"
   xmlns:rdf="http://www.w3.org/1999/02/22-rdf-syntax-ns#"
   xmlns:svg="http://www.w3.org/2000/svg"
   xmlns="http://www.w3.org/2000/svg"
   viewBox="0 0 517.87732 364.76001"
   height="364.76001"
   width="517.87732"
   xml:space="preserve"
   id="svg2"
   version="1.1"><metadata
     id="metadata8"><rdf:RDF><cc:Work
         rdf:about=""><dc:format>image/svg+xml</dc:format><dc:type
           rdf:resource="http://purl.org/dc/dcmitype/StillImage" /></cc:Work></rdf:RDF></metadata><defs
     id="defs6"><clipPath
       id="clipPath18"
       clipPathUnits="userSpaceOnUse"><path
         id="path16"
         d="M 0,273.57 H 388.408 V 0 H 0 Z" /></clipPath></defs><g
     transform="matrix(1.3333333,0,0,-1.3333333,0,364.76)"
     id="g10"><g
       id="g12"><g
         clip-path="url(#clipPath18)"
         id="g14"><g
           transform="translate(163.6659,203.8425)"
           id="g20"><path
             id="path22"
             style="fill:#000000;fill-opacity:1;fill-rule:nonzero;stroke:none"
             d="M 0,0 -0.021,-0.133 C -0.246,-1.407 -3.276,-19.107 -2.63,-42.16 3.747,-29.696 9.818,-15.392 12.247,-6.89 15.651,5.023 13.784,9.989 12.368,11.889 10.765,14.04 8.308,14.234 7.893,14.252 6.861,14.184 5.788,13.736 4.858,12.982 2.696,11.229 0.647,4.316 0,0" /></g><g
           transform="translate(81.9097,69.0398)"
           id="g24"><path
             id="path26"
             style="fill:#000000;fill-opacity:1;fill-rule:nonzero;stroke:none"
             d="m 0,0 c 28.077,20.573 51.161,51.339 67.811,73.539 0.746,0.995 1.524,2.11 2.326,3.328 -2.38,23.883 -0.579,46.303 1.738,59.474 0.378,2.516 2.443,14.348 8.442,19.212 2.62,2.123 5.822,3.365 9.018,3.498 0.85,0.029 7.823,0.039 12.615,-6.13 4.656,-5.997 5.217,-15.335 1.668,-27.755 -3.553,-12.438 -14.15,-36.024 -23.204,-50.76 1.482,-12.776 4.345,-26.223 9.449,-38.865 0.716,-1.775 2.378,-2.13 2.87,-2.196 0.665,-0.09 1.918,-0.068 2.808,1.099 0.165,0.215 0.292,0.439 0.38,0.669 3.443,8.985 6.438,18.488 9.335,27.679 6.946,22.041 14.13,44.834 28.311,63.696 1.607,2.136 4.169,3.299 6.833,3.119 2.621,-0.18 4.944,-1.648 6.213,-3.926 2.505,-4.503 2.461,-9.944 2.04,-15.153 -1.576,-19.502 -0.953,-39.209 1.848,-58.574 l 0.019,-0.124 c 0.254,-1.684 1.576,-2.201 2.133,-2.344 0.581,-0.151 2.045,-0.346 3.13,1.067 25.597,33.327 54.413,63.807 86.046,91.14 -7.288,20.811 -27.152,35.846 -50.368,35.846 H 34.16 c -29.342,0 -53.349,-24.007 -53.349,-53.35 v -83.3 C -19.189,24.514 -11.708,9.807 0,0" /></g><g
           transform="translate(171.4403,218.092)"
           id="g28"><path
             id="path30"
             style="fill:#000000;fill-opacity:1;fill-rule:nonzero;stroke:none"
             d="M 0,0 0.093,0.003 C 0.077,0.004 0.066,0.004 0.061,0.004 Z" /></g><g
           transform="translate(245.6229,113.5017)"
           id="g32"><path
             id="path34"
             style="fill:#000000;fill-opacity:1;fill-rule:nonzero;stroke:none"
             d="m 0,0 c -3.227,-4.201 -8.421,-5.986 -13.561,-4.659 -5.091,1.315 -8.739,5.352 -9.521,10.536 l -0.028,0.192 c -2.908,20.096 -3.554,40.556 -1.918,60.802 0.096,1.19 0.266,3.286 0.143,5.328 C -36.256,55.508 -42.42,35.947 -48.92,15.324 c -2.941,-9.333 -5.983,-18.983 -9.535,-28.252 -0.431,-1.126 -1.027,-2.189 -1.772,-3.162 -2.848,-3.729 -7.374,-5.577 -12.092,-4.937 -4.846,0.654 -8.986,3.859 -10.804,8.362 -3.963,9.818 -6.702,20.282 -8.517,30.766 -16.115,-21.407 -37.441,-48.742 -63.35,-68.525 7.573,-4.14 16.242,-6.499 25.437,-6.499 H 27.748 c 29.342,0 53.349,24.008 53.349,53.35 v 83.301 c 0,2.205 -0.151,4.375 -0.414,6.512 C 51.112,60.238 24.113,31.394 0,0" /></g><g
           transform="translate(64.2704,19.8889)"
           id="g36"><path
             id="path38"
             style="fill:#000000;fill-opacity:1;fill-rule:nonzero;stroke:none"
             d="M 0,0 H 1.573 V 12.597 H 0 v 2.086 h 5.244 l 5.255,-14.3 5.32,14.3 H 20.79 V 12.597 H 19.228 V 0 H 20.79 V -1.879 H 15.415 V 0 h 1.77 V 12.717 L 11.395,-1.879 H 9.537 L 3.671,12.749 V 0 H 5.375 V -1.879 H 0 Z" /></g><g
           transform="translate(91.6146,19.3977)"
           id="g40"><path
             id="path42"
             style="fill:#000000;fill-opacity:1;fill-rule:nonzero;stroke:none"
             d="m 0,0 c 0.269,0 0.539,0.033 0.808,0.099 0.27,0.065 0.525,0.154 0.765,0.267 0.24,0.113 0.462,0.243 0.666,0.393 0.204,0.149 0.375,0.304 0.514,0.465 L 2.764,3.78 H 0.404 C 0.011,3.78 -0.348,3.736 -0.672,3.648 -0.996,3.562 -1.277,3.434 -1.513,3.267 -1.75,3.099 -1.934,2.892 -2.065,2.644 -2.196,2.396 -2.262,2.112 -2.262,1.792 c 0,-0.299 0.055,-0.56 0.164,-0.781 0.11,-0.223 0.264,-0.408 0.465,-0.558 0.2,-0.149 0.438,-0.262 0.715,-0.339 C -0.641,0.038 -0.335,0 0,0 m 2.753,-0.339 c -0.43,-0.4 -0.905,-0.728 -1.426,-0.983 -0.521,-0.255 -1.113,-0.382 -1.775,-0.382 -0.553,0 -1.062,0.087 -1.524,0.262 -0.463,0.174 -0.861,0.413 -1.196,0.715 -0.335,0.302 -0.596,0.654 -0.781,1.055 -0.186,0.401 -0.279,0.826 -0.279,1.277 0,0.482 0.071,0.908 0.213,1.279 0.142,0.372 0.331,0.694 0.568,0.967 0.237,0.273 0.513,0.503 0.83,0.688 0.317,0.186 0.649,0.335 0.994,0.448 0.346,0.113 0.7,0.193 1.06,0.241 0.361,0.046 0.705,0.071 1.033,0.071 0.524,0 0.965,-0.017 1.322,-0.05 0.356,-0.032 0.68,-0.078 0.972,-0.137 l 0.01,0.929 C 2.774,6.441 2.716,6.789 2.6,7.085 2.483,7.38 2.319,7.623 2.108,7.816 1.897,8.01 1.644,8.153 1.349,8.248 1.054,8.343 0.725,8.39 0.36,8.39 0.018,8.39 -0.31,8.366 -0.623,8.319 -0.936,8.271 -1.229,8.21 -1.502,8.133 -1.775,8.057 -2.027,7.97 -2.256,7.871 -2.485,7.772 -2.681,7.669 -2.84,7.56 l -0.667,1.409 c 0.269,0.175 0.565,0.337 0.885,0.486 0.32,0.149 0.657,0.276 1.011,0.383 0.353,0.105 0.713,0.188 1.081,0.251 0.368,0.061 0.73,0.093 1.087,0.093 0.655,0 1.245,-0.078 1.77,-0.236 C 2.851,9.79 3.295,9.548 3.66,9.221 4.023,8.893 4.304,8.476 4.5,7.97 4.697,7.463 4.796,6.856 4.796,6.15 L 4.785,0.491 H 6.041 V -1.388 H 2.753 Z" /></g><g
           transform="translate(107.4003,19.8889)"
           id="g44"><path
             id="path46"
             style="fill:#000000;fill-opacity:1;fill-rule:nonzero;stroke:none"
             d="m 0,0 h 1.595 v 5.168 c 0,0.866 -0.22,1.523 -0.661,1.972 -0.441,0.448 -1.073,0.672 -1.895,0.672 -0.474,0 -0.951,-0.114 -1.432,-0.339 C -2.873,7.247 -3.329,6.967 -3.758,6.632 V 0 h 1.595 V -1.879 H -7.451 V 0 h 1.574 v 7.561 h -1.574 v 1.878 h 3.606 V 8.106 h 0.021 c 0.241,0.211 0.497,0.412 0.771,0.601 0.273,0.189 0.558,0.354 0.857,0.492 0.299,0.138 0.61,0.247 0.934,0.327 0.324,0.08 0.665,0.12 1.022,0.12 0.604,0 1.15,-0.083 1.638,-0.25 C 1.886,9.228 2.301,8.973 2.644,8.631 2.986,8.288 3.25,7.85 3.436,7.314 3.622,6.779 3.714,6.147 3.714,5.419 V 0 H 5.288 V -1.879 H 0 Z" /></g><g
           transform="translate(121.6898,29.3283)"
           id="g48"><path
             id="path50"
             style="fill:#000000;fill-opacity:1;fill-rule:nonzero;stroke:none"
             d="m 0,0 h 3.649 v -9.439 h 1.256 v -1.879 H 1.606 v 1.048 c -0.51,-0.393 -1.065,-0.699 -1.666,-0.918 -0.601,-0.217 -1.244,-0.327 -1.928,-0.327 -0.568,0 -1.083,0.082 -1.546,0.246 -0.463,0.164 -0.856,0.418 -1.18,0.765 -0.324,0.346 -0.573,0.784 -0.748,1.316 -0.175,0.532 -0.262,1.166 -0.262,1.901 v 5.408 h -1.53 V 0 h 3.649 v -7.047 c 0,-0.866 0.2,-1.522 0.601,-1.966 0.4,-0.444 0.976,-0.667 1.726,-0.667 0.444,0 0.912,0.08 1.404,0.241 0.491,0.16 0.956,0.382 1.393,0.667 v 6.893 l -1.519,0 z" /></g><g
           transform="translate(134.723,27.9192)"
           id="g52"><path
             id="path54"
             style="fill:#000000;fill-opacity:1;fill-rule:nonzero;stroke:none"
             d="M 0,0 C -0.474,0 -0.887,-0.067 -1.24,-0.202 -1.593,-0.337 -1.894,-0.53 -2.141,-0.781 -2.389,-1.033 -2.587,-1.341 -2.737,-1.705 -2.886,-2.069 -2.997,-2.477 -3.07,-2.928 H 2.796 C 2.768,-2.506 2.7,-2.116 2.594,-1.759 2.489,-1.402 2.327,-1.093 2.108,-0.831 1.89,-0.568 1.609,-0.364 1.267,-0.219 0.925,-0.073 0.502,0 0,0 m -3.179,-4.513 c 0,-0.32 0.023,-0.613 0.071,-0.879 0.047,-0.265 0.114,-0.518 0.202,-0.759 0.269,-0.728 0.701,-1.277 1.295,-1.644 0.593,-0.368 1.265,-0.552 2.015,-0.552 0.59,0 1.163,0.082 1.721,0.246 0.557,0.164 1.141,0.42 1.753,0.77 L 4.697,-8.718 C 3.955,-9.229 3.208,-9.606 2.458,-9.854 c -0.75,-0.248 -1.53,-0.372 -2.338,-0.372 -0.765,0 -1.473,0.127 -2.125,0.382 -0.652,0.255 -1.212,0.634 -1.682,1.137 -0.47,0.502 -0.838,1.129 -1.104,1.879 -0.266,0.75 -0.398,1.624 -0.398,2.622 0,0.809 0.112,1.571 0.338,2.288 0.226,0.718 0.563,1.344 1.011,1.879 0.448,0.536 1.003,0.96 1.666,1.273 0.662,0.313 1.435,0.47 2.316,0.47 0.852,0 1.564,-0.13 2.136,-0.388 C 2.849,1.058 3.315,0.715 3.676,0.289 4.037,-0.137 4.31,-0.623 4.495,-1.169 4.681,-1.716 4.81,-2.272 4.883,-2.841 4.919,-3.117 4.943,-3.397 4.954,-3.682 4.965,-3.966 4.971,-4.243 4.971,-4.513 Z" /></g><g
           transform="translate(142.3695,35.009)"
           id="g56"><path
             id="path58"
             style="fill:#000000;fill-opacity:1;fill-rule:nonzero;stroke:none"
             d="m 0,0 h 3.671 v -15.12 h 1.704 v -1.879 H 0 v 1.879 h 1.639 v 13.241 l -1.639,0 z" /></g><g
           transform="translate(153.6332,19.3977)"
           id="g60"><path
             id="path62"
             style="fill:#000000;fill-opacity:1;fill-rule:nonzero;stroke:none"
             d="m 0,0 c 0.269,0 0.539,0.033 0.808,0.099 0.27,0.065 0.525,0.154 0.765,0.267 0.24,0.113 0.462,0.243 0.666,0.393 0.204,0.149 0.375,0.304 0.514,0.465 L 2.764,3.78 H 0.404 C 0.011,3.78 -0.348,3.736 -0.672,3.648 -0.996,3.562 -1.277,3.434 -1.513,3.267 -1.75,3.099 -1.934,2.892 -2.065,2.644 -2.196,2.396 -2.262,2.112 -2.262,1.792 c 0,-0.299 0.055,-0.56 0.164,-0.781 0.11,-0.223 0.264,-0.408 0.465,-0.558 0.2,-0.149 0.438,-0.262 0.715,-0.339 C -0.641,0.038 -0.335,0 0,0 m 2.753,-0.339 c -0.43,-0.4 -0.905,-0.728 -1.426,-0.983 -0.521,-0.255 -1.113,-0.382 -1.775,-0.382 -0.553,0 -1.062,0.087 -1.524,0.262 -0.463,0.174 -0.861,0.413 -1.196,0.715 -0.335,0.302 -0.596,0.654 -0.781,1.055 -0.186,0.401 -0.279,0.826 -0.279,1.277 0,0.482 0.071,0.908 0.213,1.279 0.142,0.372 0.331,0.694 0.568,0.967 0.237,0.273 0.513,0.503 0.83,0.688 0.317,0.186 0.649,0.335 0.994,0.448 0.346,0.113 0.7,0.193 1.06,0.241 0.361,0.046 0.705,0.071 1.033,0.071 0.524,0 0.965,-0.017 1.322,-0.05 0.356,-0.032 0.68,-0.078 0.972,-0.137 l 0.01,0.929 C 2.774,6.441 2.716,6.789 2.6,7.085 2.483,7.38 2.319,7.623 2.108,7.816 1.897,8.01 1.644,8.153 1.349,8.248 1.054,8.343 0.725,8.39 0.36,8.39 0.018,8.39 -0.31,8.366 -0.623,8.319 -0.936,8.271 -1.229,8.21 -1.502,8.133 -1.775,8.057 -2.027,7.97 -2.256,7.871 -2.485,7.772 -2.681,7.669 -2.84,7.56 l -0.667,1.409 c 0.269,0.175 0.565,0.337 0.885,0.486 0.32,0.149 0.657,0.276 1.011,0.383 0.353,0.105 0.713,0.188 1.081,0.251 0.368,0.061 0.73,0.093 1.087,0.093 0.655,0 1.245,-0.078 1.77,-0.236 C 2.851,9.79 3.295,9.548 3.66,9.221 4.023,8.893 4.304,8.476 4.5,7.97 4.697,7.463 4.796,6.856 4.796,6.15 L 4.785,0.491 H 6.041 V -1.388 H 2.753 Z" /></g><g
           transform="translate(188.2523,34.5715)"
           id="g64"><path
             id="path66"
             style="fill:#000000;fill-opacity:1;fill-rule:nonzero;stroke:none"
             d="M 0,0 H 5.375 V -1.89 H 3.933 l -4.73,-14.672 H -4.14 l -4.49,14.432 -4.141,-14.432 h -3.31 l -4.828,14.672 h -1.464 V 0 h 5.374 V -1.89 H -18.44 L -14.431,-14.617 -10.203,0 h 3.266 L -2.436,-14.617 1.65,-1.89 H 0 Z" /></g><g
           transform="translate(196.8285,23.6692)"
           id="g68"><path
             id="path70"
             style="fill:#000000;fill-opacity:1;fill-rule:nonzero;stroke:none"
             d="m 0,0 c 0,-0.648 0.093,-1.234 0.278,-1.759 0.186,-0.524 0.441,-0.97 0.765,-1.338 0.324,-0.368 0.699,-0.652 1.125,-0.852 0.426,-0.2 0.88,-0.301 1.36,-0.301 0.503,0 0.971,0.099 1.404,0.295 0.433,0.197 0.81,0.479 1.131,0.847 0.32,0.368 0.572,0.814 0.754,1.338 C 6.999,-1.245 7.09,-0.655 7.09,0 7.09,0.685 6.999,1.293 6.817,1.824 6.635,2.355 6.385,2.8 6.068,3.157 5.751,3.514 5.375,3.783 4.937,3.966 4.501,4.147 4.031,4.238 3.528,4.238 3.048,4.238 2.594,4.147 2.168,3.966 1.742,3.783 1.367,3.514 1.043,3.157 0.719,2.8 0.464,2.355 0.278,1.824 0.093,1.293 0,0.685 0,0 m -2.152,0 c 0.007,0.896 0.151,1.711 0.431,2.447 0.281,0.736 0.672,1.367 1.175,1.896 0.502,0.527 1.099,0.933 1.791,1.218 0.692,0.284 1.453,0.425 2.283,0.425 0.838,0 1.604,-0.141 2.3,-0.425 C 6.523,5.276 7.119,4.874 7.614,4.354 8.109,3.833 8.495,3.204 8.772,2.469 9.048,1.733 9.187,0.918 9.187,0.021 9.187,-0.859 9.048,-1.67 8.772,-2.409 8.495,-3.148 8.109,-3.783 7.614,-4.315 7.119,-4.847 6.523,-5.26 5.828,-5.555 5.132,-5.851 4.366,-5.998 3.528,-5.998 c -0.852,0 -1.624,0.146 -2.316,0.437 -0.691,0.291 -1.285,0.702 -1.78,1.229 -0.495,0.528 -0.882,1.16 -1.158,1.895 C -2.003,-1.7 -2.145,-0.889 -2.152,0" /></g><g
           transform="translate(208.1239,35.009)"
           id="g72"><path
             id="path74"
             style="fill:#000000;fill-opacity:1;fill-rule:nonzero;stroke:none"
             d="m 0,0 h 3.671 v -15.12 h 1.704 v -1.879 H 0 v 1.879 h 1.639 v 13.241 l -1.639,0 z" /></g><g
           transform="translate(218.7655,29.3283)"
           id="g76"><path
             id="path78"
             style="fill:#000000;fill-opacity:1;fill-rule:nonzero;stroke:none"
             d="m 0,0 h 2.654 v -1.65 h -2.676 l -0.033,-6.533 c 0,-0.444 0.051,-0.804 0.153,-1.082 0.102,-0.276 0.266,-0.467 0.492,-0.573 0.225,-0.105 0.48,-0.158 0.764,-0.158 0.306,0 0.576,0.027 0.809,0.082 0.233,0.055 0.487,0.147 0.765,0.278 l 0.469,-1.365 c -0.349,-0.183 -0.717,-0.326 -1.103,-0.432 -0.386,-0.105 -0.841,-0.158 -1.365,-0.158 -0.496,0 -0.928,0.06 -1.295,0.18 -0.368,0.12 -0.678,0.322 -0.929,0.606 -0.251,0.284 -0.438,0.664 -0.562,1.142 -0.124,0.476 -0.186,1.072 -0.186,1.786 l 0.032,6.227 H -3.813 V 0 h 1.825 V 2.709 L 0,3.648 Z" /></g><g
           transform="translate(228.9139,27.9192)"
           id="g80"><path
             id="path82"
             style="fill:#000000;fill-opacity:1;fill-rule:nonzero;stroke:none"
             d="M 0,0 C -0.474,0 -0.887,-0.067 -1.24,-0.202 -1.594,-0.337 -1.894,-0.53 -2.142,-0.781 -2.389,-1.033 -2.588,-1.341 -2.736,-1.705 -2.886,-2.069 -2.997,-2.477 -3.07,-2.928 H 2.797 C 2.768,-2.506 2.7,-2.116 2.595,-1.759 2.488,-1.402 2.327,-1.093 2.108,-0.831 1.89,-0.568 1.609,-0.364 1.268,-0.219 0.925,-0.073 0.502,0 0,0 m -3.179,-4.513 c 0,-0.32 0.024,-0.613 0.071,-0.879 0.047,-0.265 0.115,-0.518 0.202,-0.759 0.269,-0.728 0.701,-1.277 1.295,-1.644 0.593,-0.368 1.265,-0.552 2.015,-0.552 0.59,0 1.163,0.082 1.721,0.246 0.557,0.164 1.142,0.42 1.753,0.77 L 4.697,-8.718 C 3.954,-9.229 3.208,-9.606 2.458,-9.854 c -0.75,-0.248 -1.529,-0.372 -2.338,-0.372 -0.765,0 -1.474,0.127 -2.125,0.382 -0.651,0.255 -1.213,0.634 -1.683,1.137 -0.469,0.502 -0.836,1.129 -1.103,1.879 -0.266,0.75 -0.398,1.624 -0.398,2.622 0,0.809 0.113,1.571 0.338,2.288 0.226,0.718 0.563,1.344 1.011,1.879 0.447,0.536 1.003,0.96 1.666,1.273 0.662,0.313 1.435,0.47 2.316,0.47 0.852,0 1.564,-0.13 2.135,-0.388 C 2.85,1.058 3.315,0.715 3.676,0.289 4.036,-0.137 4.31,-0.623 4.495,-1.169 4.681,-1.716 4.811,-2.272 4.883,-2.841 4.92,-3.117 4.943,-3.397 4.954,-3.682 4.965,-3.966 4.971,-4.243 4.971,-4.513 Z" /></g><g
           transform="translate(244.787,26.9358)"
           id="g84"><path
             id="path86"
             style="fill:#000000;fill-opacity:1;fill-rule:nonzero;stroke:none"
             d="m 0,0 h -2.076 v 0.699 c -0.24,0 -0.487,-0.046 -0.737,-0.137 C -3.064,0.472 -3.3,0.333 -3.518,0.147 -3.736,-0.038 -3.928,-0.275 -4.092,-0.562 -4.255,-0.851 -4.374,-1.191 -4.446,-1.584 v -5.463 h 1.923 v -1.879 h -5.616 v 1.879 h 1.562 l 0.012,7.561 h -1.574 v 1.879 h 3.616 V 0.83 c 0.131,0.233 0.279,0.449 0.443,0.65 0.163,0.201 0.346,0.375 0.546,0.525 0.2,0.148 0.422,0.266 0.666,0.349 0.244,0.084 0.508,0.125 0.792,0.125 h 1.071 c 0.335,0 0.67,-0.006 1.005,-0.021 z" /></g><g
           transform="translate(256.618,25.4612)"
           id="g88"><path
             id="path90"
             style="fill:#000000;fill-opacity:1;fill-rule:nonzero;stroke:none"
             d="M 0,0 H 5.112 L 2.534,7.406 Z M 5.681,-5.572 H 7.058 L 5.746,-1.813 H -0.623 L -1.9,-5.572 h 1.704 v -1.879 h -5.375 v 1.879 h 1.442 L 1.027,9.11 H 4.25 L 9.396,-5.572 h 1.66 V -7.451 H 5.681 Z" /></g><g
           transform="translate(272.1532,29.3283)"
           id="g92"><path
             id="path94"
             style="fill:#000000;fill-opacity:1;fill-rule:nonzero;stroke:none"
             d="m 0,0 h 2.654 v -1.65 h -2.676 l -0.033,-6.533 c 0,-0.444 0.051,-0.804 0.153,-1.082 0.102,-0.276 0.266,-0.467 0.492,-0.573 0.225,-0.105 0.48,-0.158 0.764,-0.158 0.306,0 0.576,0.027 0.809,0.082 0.233,0.055 0.487,0.147 0.765,0.278 l 0.469,-1.365 c -0.349,-0.183 -0.717,-0.326 -1.103,-0.432 -0.386,-0.105 -0.841,-0.158 -1.365,-0.158 -0.496,0 -0.928,0.06 -1.295,0.18 -0.368,0.12 -0.678,0.322 -0.929,0.606 -0.251,0.284 -0.438,0.664 -0.562,1.142 -0.124,0.476 -0.186,1.072 -0.186,1.786 l 0.032,6.227 H -3.813 V 0 h 1.825 V 2.709 L 0,3.648 Z" /></g><g
           transform="translate(282.3016,27.9192)"
           id="g96"><path
             id="path98"
             style="fill:#000000;fill-opacity:1;fill-rule:nonzero;stroke:none"
             d="M 0,0 C -0.474,0 -0.887,-0.067 -1.24,-0.202 -1.594,-0.337 -1.894,-0.53 -2.142,-0.781 -2.389,-1.033 -2.588,-1.341 -2.736,-1.705 -2.886,-2.069 -2.997,-2.477 -3.07,-2.928 H 2.797 C 2.768,-2.506 2.7,-2.116 2.595,-1.759 2.488,-1.402 2.327,-1.093 2.108,-0.831 1.89,-0.568 1.609,-0.364 1.268,-0.219 0.925,-0.073 0.502,0 0,0 m -3.179,-4.513 c 0,-0.32 0.024,-0.613 0.071,-0.879 0.047,-0.265 0.115,-0.518 0.202,-0.759 0.269,-0.728 0.701,-1.277 1.295,-1.644 0.593,-0.368 1.265,-0.552 2.015,-0.552 0.59,0 1.163,0.082 1.721,0.246 0.557,0.164 1.142,0.42 1.753,0.77 L 4.697,-8.718 C 3.954,-9.229 3.208,-9.606 2.458,-9.854 c -0.75,-0.248 -1.529,-0.372 -2.338,-0.372 -0.765,0 -1.474,0.127 -2.125,0.382 -0.651,0.255 -1.213,0.634 -1.683,1.137 -0.469,0.502 -0.836,1.129 -1.103,1.879 -0.266,0.75 -0.398,1.624 -0.398,2.622 0,0.809 0.113,1.571 0.338,2.288 0.226,0.718 0.563,1.344 1.011,1.879 0.447,0.536 1.003,0.96 1.666,1.273 0.662,0.313 1.435,0.47 2.316,0.47 0.852,0 1.564,-0.13 2.135,-0.388 C 2.85,1.058 3.315,0.715 3.676,0.289 4.036,-0.137 4.31,-0.623 4.495,-1.169 4.681,-1.716 4.811,-2.272 4.883,-2.841 4.92,-3.117 4.943,-3.397 4.954,-3.682 4.965,-3.966 4.971,-4.243 4.971,-4.513 Z" /></g><g
           transform="translate(289.9491,35.009)"
           id="g100"><path
             id="path102"
             style="fill:#000000;fill-opacity:1;fill-rule:nonzero;stroke:none"
             d="m 0,0 h 3.671 v -15.12 h 1.704 v -1.879 H 0 v 1.879 h 1.639 v 13.241 l -1.639,0 z" /></g><g
           transform="translate(298.4813,33.3371)"
           id="g104"><path
             id="path106"
             style="fill:#000000;fill-opacity:1;fill-rule:nonzero;stroke:none"
             d="M 0,0 C 0,0.189 0.038,0.37 0.114,0.541 0.19,0.712 0.293,0.861 0.42,0.989 0.548,1.116 0.699,1.218 0.874,1.295 1.049,1.371 1.234,1.409 1.431,1.409 1.62,1.409 1.801,1.371 1.972,1.295 2.143,1.218 2.292,1.116 2.419,0.989 2.547,0.861 2.648,0.712 2.726,0.541 2.802,0.37 2.84,0.189 2.84,0 2.84,-0.196 2.802,-0.382 2.726,-0.557 2.648,-0.731 2.547,-0.887 2.419,-1.021 2.292,-1.156 2.143,-1.262 1.972,-1.338 1.801,-1.414 1.62,-1.453 1.431,-1.453 1.234,-1.453 1.049,-1.414 0.874,-1.338 0.699,-1.262 0.548,-1.156 0.42,-1.021 0.293,-0.887 0.19,-0.731 0.114,-0.557 0.038,-0.382 0,-0.196 0,0 m -1.257,-4.009 h 3.693 v -9.439 H 4.14 v -1.879 h -5.374 v 1.879 h 1.616 v 7.56 h -1.639 z" /></g><g
           transform="translate(309.5917,27.9192)"
           id="g108"><path
             id="path110"
             style="fill:#000000;fill-opacity:1;fill-rule:nonzero;stroke:none"
             d="M 0,0 C -0.474,0 -0.887,-0.067 -1.24,-0.202 -1.594,-0.337 -1.894,-0.53 -2.142,-0.781 -2.389,-1.033 -2.588,-1.341 -2.736,-1.705 -2.886,-2.069 -2.997,-2.477 -3.07,-2.928 H 2.797 C 2.768,-2.506 2.7,-2.116 2.595,-1.759 2.488,-1.402 2.327,-1.093 2.108,-0.831 1.89,-0.568 1.609,-0.364 1.268,-0.219 0.925,-0.073 0.502,0 0,0 m -3.179,-4.513 c 0,-0.32 0.024,-0.613 0.071,-0.879 0.047,-0.265 0.115,-0.518 0.202,-0.759 0.269,-0.728 0.701,-1.277 1.295,-1.644 0.593,-0.368 1.265,-0.552 2.015,-0.552 0.59,0 1.163,0.082 1.721,0.246 0.557,0.164 1.142,0.42 1.753,0.77 L 4.697,-8.718 C 3.954,-9.229 3.208,-9.606 2.458,-9.854 c -0.75,-0.248 -1.529,-0.372 -2.338,-0.372 -0.765,0 -1.474,0.127 -2.125,0.382 -0.651,0.255 -1.213,0.634 -1.683,1.137 -0.469,0.502 -0.836,1.129 -1.103,1.879 -0.266,0.75 -0.398,1.624 -0.398,2.622 0,0.809 0.113,1.571 0.338,2.288 0.226,0.718 0.563,1.344 1.011,1.879 0.447,0.536 1.003,0.96 1.666,1.273 0.662,0.313 1.435,0.47 2.316,0.47 0.852,0 1.564,-0.13 2.135,-0.388 C 2.85,1.058 3.315,0.715 3.676,0.289 4.036,-0.137 4.31,-0.623 4.495,-1.169 4.681,-1.716 4.811,-2.272 4.883,-2.841 4.92,-3.117 4.943,-3.397 4.954,-3.682 4.965,-3.966 4.971,-4.243 4.971,-4.513 Z" /></g><g
           transform="translate(325.4647,26.9358)"
           id="g112"><path
             id="path114"
             style="fill:#000000;fill-opacity:1;fill-rule:nonzero;stroke:none"
             d="m 0,0 h -2.076 v 0.699 c -0.24,0 -0.487,-0.046 -0.737,-0.137 C -3.064,0.472 -3.3,0.333 -3.518,0.147 -3.736,-0.038 -3.928,-0.275 -4.092,-0.562 -4.255,-0.851 -4.374,-1.191 -4.446,-1.584 v -5.463 h 1.923 v -1.879 h -5.616 v 1.879 h 1.562 l 0.012,7.561 h -1.574 v 1.879 h 3.616 V 0.83 c 0.131,0.233 0.279,0.449 0.443,0.65 0.163,0.201 0.346,0.375 0.546,0.525 0.2,0.148 0.422,0.266 0.666,0.349 0.244,0.084 0.508,0.125 0.792,0.125 h 1.071 c 0.335,0 0.67,-0.006 1.005,-0.021 z" /></g></g></g></g></svg>