<?xml version="1.0" standalone="no"?>
<!DOCTYPE svg PUBLIC "-//W3C//DTD SVG 20010904//EN"
 "http://www.w3.org/TR/2001/REC-SVG-20010904/DTD/svg10.dtd">
<svg version="1.0" xmlns="http://www.w3.org/2000/svg"
 width="1101.000000pt" height="960.000000pt" viewBox="0 0 1101.000000 960.000000"
 preserveAspectRatio="xMidYMid meet">

<g transform="translate(0.000000,960.000000) scale(0.100000,-0.100000)"
fill="#000000" stroke="none">
<path d="M2070 9593 c-550 -42 -1065 -287 -1448 -687 -333 -348 -536 -779
-604 -1276 -19 -140 -19 -3840 0 -3985 56 -422 219 -808 477 -1131 73 -91 251
-274 293 -302 26 -17 12 -26 262 174 269 214 417 350 751 683 401 402 689 726
1085 1221 229 286 680 876 798 1042 l47 68 -10 107 c-68 699 -40 1614 69 2293
51 313 95 464 192 654 118 230 327 366 563 366 290 0 551 -210 634 -510 78
-281 31 -672 -140 -1150 -59 -163 -176 -454 -272 -670 -151 -343 -437 -903
-570 -1120 -46 -74 -46 -69 -16 -275 69 -477 178 -915 326 -1310 29 -77 56
-131 75 -152 54 -56 148 -62 196 -10 38 40 165 407 407 1167 255 804 370 1129
532 1510 154 361 314 662 508 955 186 282 255 340 405 340 127 -1 229 -62 287
-172 75 -140 101 -319 83 -568 -24 -348 -30 -465 -36 -745 -9 -430 15 -942 67
-1405 30 -265 47 -373 65 -400 9 -13 35 -31 59 -41 74 -28 102 -11 203 119
1032 1318 2078 2437 3262 3486 102 91 203 180 224 199 l39 35 -18 51 c-29 82
-119 268 -175 362 -83 136 -191 274 -313 400 -191 198 -381 337 -622 454 -210
103 -377 157 -630 203 l-120 22 -3445 1 c-1895 0 -3465 -1 -3490 -3z"/>
<path d="M4482 8397 c-63 -24 -100 -64 -147 -160 -79 -164 -131 -395 -175
-787 -40 -353 -51 -552 -56 -975 l-4 -420 103 205 c210 420 420 929 511 1236
113 380 118 671 16 813 -56 77 -170 118 -248 88z"/>
<path d="M10845 7519 c-815 -729 -1618 -1547 -2331 -2374 -249 -289 -664 -799
-858 -1053 -100 -132 -206 -206 -337 -237 -266 -62 -550 97 -629 353 -34 109
-92 612 -120 1032 -27 413 -23 1075 11 1525 6 77 9 175 7 217 l-3 78 -77 -123
c-299 -477 -525 -1008 -808 -1892 -49 -154 -139 -437 -200 -629 -181 -566
-306 -914 -360 -1000 -91 -143 -279 -246 -450 -246 -204 0 -414 130 -502 310
-112 230 -258 718 -343 1142 -18 93 -35 171 -37 174 -3 2 -74 -87 -159 -198
-912 -1198 -1643 -1988 -2357 -2548 -67 -52 -121 -98 -121 -101 -1 -11 215
-108 330 -147 63 -22 164 -51 224 -65 254 -60 28 -57 3780 -57 3705 0 3517 -3
3757 50 484 105 966 410 1269 800 274 352 432 755 469 1195 15 179 10 3859 -6
3894 -10 24 -14 21 -149 -100z"/>
<path d="M4180 590 c0 -313 2 -360 15 -360 13 0 15 47 15 360 0 313 -2 360
-15 360 -13 0 -15 -47 -15 -360z"/>
<path d="M6060 590 c0 -313 2 -360 15 -360 13 0 15 47 15 360 0 313 -2 360
-15 360 -13 0 -15 -47 -15 -360z"/>
<path d="M8240 590 c0 -313 2 -360 15 -360 13 0 15 47 15 360 0 313 -2 360
-15 360 -13 0 -15 -47 -15 -360z"/>
<path d="M2020 570 c0 -294 2 -340 15 -340 13 0 15 43 17 308 l3 307 130 -252
c83 -161 135 -253 145 -253 9 0 63 94 145 253 l130 252 3 -308 c2 -264 4 -307
17 -307 13 0 15 46 15 340 0 317 -1 340 -17 340 -13 0 -54 -71 -151 -260 -73
-143 -137 -260 -140 -260 -4 0 -68 117 -142 260 -98 189 -140 260 -152 260
-17 0 -18 -23 -18 -340z"/>
<path d="M4894 573 c76 -228 118 -339 128 -341 11 -2 36 68 108 308 51 171 96
305 100 298 4 -7 47 -147 96 -310 66 -220 93 -298 104 -298 11 0 43 82 114
298 133 398 129 384 110 380 -10 -2 -48 -101 -118 -313 -58 -173 -106 -303
-110 -295 -3 8 -46 148 -95 310 -63 209 -93 296 -104 298 -12 2 -21 -15 -36
-65 -11 -37 -53 -177 -93 -310 -40 -133 -75 -240 -78 -238 -3 2 -50 141 -105
309 -78 238 -104 306 -117 306 -13 0 4 -61 96 -337z"/>
<path d="M7255 723 c-200 -481 -205 -494 -189 -491 10 2 31 39 51 91 l35 87
196 -2 196 -3 35 -87 c20 -52 40 -88 48 -88 18 0 25 -19 -130 355 -85 204
-139 321 -148 323 -12 2 -36 -47 -94 -185z m189 -78 c46 -110 81 -203 79 -207
-7 -13 -353 -10 -353 3 0 6 39 105 87 221 59 141 90 206 96 197 5 -8 46 -104
91 -214z"/>
<path d="M6213 750 c-8 -12 -13 -55 -13 -110 0 -83 -1 -90 -20 -90 -11 0 -20
-4 -20 -10 0 -5 9 -10 20 -10 19 0 20 -7 20 -150 0 -127 2 -150 15 -150 13 0
15 23 15 150 l0 150 25 0 c14 0 25 5 25 10 0 6 -11 10 -25 10 -24 0 -24 0 -27
110 -3 93 -5 107 -15 90z"/>
<path d="M7723 750 c-8 -12 -13 -55 -13 -110 0 -83 -1 -90 -20 -90 -11 0 -20
-4 -20 -10 0 -5 9 -10 20 -10 19 0 20 -7 20 -150 0 -127 2 -150 15 -150 13 0
15 23 15 150 l0 150 25 0 c14 0 25 5 25 10 0 6 -11 10 -25 10 -24 0 -24 0 -27
110 -3 93 -5 107 -15 90z"/>
<path d="M8370 640 c0 -20 5 -30 15 -30 10 0 15 10 15 30 0 20 -5 30 -15 30
-10 0 -15 -10 -15 -30z"/>
<path d="M3865 550 c-48 -25 -71 -54 -86 -112 -37 -138 80 -256 217 -219 52
14 99 50 85 64 -6 6 -19 2 -37 -12 -39 -31 -98 -44 -138 -31 -54 18 -106 84
-106 134 l0 26 151 0 152 0 -7 31 c-10 52 -44 96 -90 118 -53 26 -90 26 -141
1z m148 -32 c26 -19 57 -66 57 -88 0 -6 -47 -10 -135 -10 -74 0 -135 2 -135 5
0 22 33 76 56 92 52 37 105 37 157 1z"/>
<path d="M5735 547 c-68 -39 -105 -115 -91 -191 14 -76 94 -146 166 -146 55 0
115 33 146 80 59 89 25 218 -69 261 -56 25 -103 24 -152 -4z m154 -26 c49 -35
66 -69 66 -131 0 -44 -5 -66 -21 -86 -35 -47 -69 -67 -118 -68 -51 -1 -87 21
-124 75 -20 28 -23 44 -20 92 4 46 10 63 34 88 56 60 126 71 183 30z"/>
<path d="M6425 550 c-48 -25 -71 -54 -86 -112 -37 -138 80 -256 217 -219 52
14 99 50 85 64 -6 6 -19 2 -37 -12 -39 -31 -98 -44 -138 -31 -54 18 -106 84
-106 134 l0 26 151 0 152 0 -7 31 c-10 52 -44 96 -90 118 -53 26 -90 26 -141
1z m148 -32 c26 -19 57 -66 57 -88 0 -6 -47 -10 -135 -10 -74 0 -135 2 -135 5
0 22 33 76 56 92 52 37 105 37 157 1z"/>
<path d="M7935 550 c-48 -25 -71 -54 -86 -112 -37 -138 80 -256 217 -219 52
14 99 50 85 64 -6 6 -19 2 -37 -12 -39 -31 -98 -44 -138 -31 -54 18 -106 84
-106 134 l0 26 151 0 152 0 -7 31 c-10 52 -44 96 -90 118 -53 26 -90 26 -141
1z m148 -32 c26 -19 57 -66 57 -88 0 -6 -47 -10 -135 -10 -74 0 -135 2 -135 5
0 22 33 76 56 92 52 37 105 37 157 1z"/>
<path d="M8575 550 c-48 -25 -71 -54 -86 -112 -37 -138 80 -256 217 -219 52
14 99 50 85 64 -6 6 -19 2 -37 -12 -39 -31 -98 -44 -138 -31 -54 18 -106 84
-106 134 l0 26 151 0 152 0 -7 31 c-10 52 -44 96 -90 118 -53 26 -90 26 -141
1z m148 -32 c26 -19 57 -66 57 -88 0 -6 -47 -10 -135 -10 -74 0 -135 2 -135 5
0 22 33 76 56 92 52 37 105 37 157 1z"/>
<path d="M2813 553 c-49 -9 -20 -21 47 -20 81 2 107 -14 117 -77 l6 -37 -34
20 c-74 46 -185 17 -215 -55 -49 -117 84 -216 206 -154 22 11 40 16 40 10 0
-5 7 -10 16 -10 14 0 16 15 12 128 -2 73 -9 136 -16 149 -24 44 -95 62 -179
46z m139 -152 c73 -81 -13 -195 -122 -162 -48 14 -70 40 -77 88 -4 29 0 44 17
66 30 38 56 48 110 43 34 -3 51 -11 72 -35z"/>
<path d="M3177 541 c-29 -15 -37 -16 -37 -5 0 8 -7 14 -15 14 -13 0 -15 -24
-15 -160 0 -136 2 -160 15 -160 13 0 15 20 15 121 0 67 5 129 11 141 15 27 71
49 108 42 58 -12 66 -32 69 -175 3 -103 6 -129 18 -129 11 0 14 21 14 108 0
135 -11 177 -53 202 -40 25 -83 25 -130 1z"/>
<path d="M4383 553 c-49 -9 -20 -21 47 -20 81 2 107 -14 117 -77 l6 -37 -34
20 c-74 46 -185 17 -215 -55 -49 -117 84 -216 206 -154 22 11 40 16 40 10 0
-5 7 -10 16 -10 14 0 16 15 12 128 -2 73 -9 136 -16 149 -24 44 -95 62 -179
46z m139 -152 c73 -81 -13 -195 -122 -162 -48 14 -70 40 -77 88 -4 29 0 44 17
66 30 38 56 48 110 43 34 -3 51 -11 72 -35z"/>
<path d="M3440 443 c0 -60 5 -125 11 -146 20 -73 112 -100 183 -52 34 23 36
23 36 5 0 -11 7 -20 15 -20 13 0 15 24 15 160 0 136 -2 160 -15 160 -12 0 -15
-20 -15 -119 0 -113 -1 -121 -25 -149 -32 -38 -72 -48 -119 -28 -48 20 -56 45
-56 182 0 95 -3 114 -15 114 -12 0 -15 -19 -15 -107z"/>
<path d="M6740 390 c0 -131 3 -160 14 -160 11 0 15 25 18 121 3 118 4 121 31
145 15 13 37 24 48 24 10 0 19 7 19 15 0 23 -35 18 -68 -10 -17 -14 -33 -25
-36 -25 -3 0 -6 11 -6 25 0 14 -4 25 -10 25 -6 0 -10 -60 -10 -160z"/>
<path d="M8370 390 c0 -136 2 -160 15 -160 13 0 15 24 15 160 0 136 -2 160
-15 160 -13 0 -15 -24 -15 -160z"/>
<path d="M8890 390 c0 -131 3 -160 14 -160 11 0 15 25 18 121 3 118 4 121 31
145 15 13 37 24 48 24 10 0 19 7 19 15 0 23 -35 18 -68 -10 -17 -14 -33 -25
-36 -25 -3 0 -6 11 -6 25 0 14 -4 25 -10 25 -6 0 -10 -60 -10 -160z"/>
</g>
</svg>
